<svg width="16" height="15" viewBox="0 0 16 15" fill="none" xmlns="http://www.w3.org/2000/svg">
<g clip-path="url(#clip0_9_487)">
<path d="M14.0022 9.84578C13.0839 9.84578 12.1821 9.70215 11.3276 9.41977C10.9089 9.27695 10.3942 9.40797 10.1387 9.67043L8.45206 10.9436C6.49608 9.89953 5.29124 8.69508 4.2614 6.75379L5.49714 5.11113C5.81819 4.79051 5.93335 4.32215 5.79538 3.8827C5.51179 3.02371 5.36772 2.12242 5.36772 1.20367C5.36776 0.539961 4.8278 0 4.16413 0H1.40944C0.745771 0 0.205811 0.539961 0.205811 1.20363C0.205811 8.81105 6.39479 15 14.0022 15C14.6659 15 15.2058 14.46 15.2058 13.7964V11.0494C15.2058 10.3857 14.6658 9.84578 14.0022 9.84578Z" fill="black"/>
</g>
<defs>
<clipPath id="clip0_9_487">
<rect width="15" height="15" fill="white" transform="translate(0.205811)"/>
</clipPath>
</defs>
</svg>
