<svg width="25" height="18" viewBox="0 0 25 18" fill="none" xmlns="http://www.w3.org/2000/svg">
<path d="M8.10547 14.8722H21.3381C21.6658 14.8722 21.9532 14.6555 22.0419 14.3408L24.9718 4.08667C25.0347 3.86561 24.9916 3.62814 24.8529 3.44447C24.7141 3.26136 24.4982 3.15321 24.2678 3.15321H6.4146L5.89104 0.797257C5.81665 0.461754 5.5191 0.223526 5.17578 0.223526H0.732422C0.327683 0.223526 0 0.551209 0 0.955948C0 1.36088 0.327683 1.68837 0.732422 1.68837H4.58794L7.23286 13.5902C6.45466 13.9286 5.9082 14.7032 5.9082 15.6046C5.9082 16.8161 6.89392 17.8018 8.10547 17.8018H21.3381C21.743 17.8018 22.0705 17.4744 22.0705 17.0694C22.0705 16.6647 21.743 16.337 21.3381 16.337H8.10547C7.70206 16.337 7.37305 16.0087 7.37305 15.6046C7.37305 15.2004 7.70206 14.8722 8.10547 14.8722Z" fill="#4BA9FF"/>
</svg>
