<svg width="25" height="26" viewBox="0 0 25 26" fill="none" xmlns="http://www.w3.org/2000/svg">
<g clip-path="url(#clip0_9_44)">
<path d="M8.10547 16.8722H21.3381C21.6658 16.8722 21.9532 16.6555 22.0419 16.3408L24.9718 6.08667C25.0347 5.86561 24.9916 5.62814 24.8529 5.44447C24.7141 5.26136 24.4982 5.15321 24.2678 5.15321H6.4146L5.89104 2.79726C5.81665 2.46175 5.5191 2.22353 5.17578 2.22353H0.732422C0.327683 2.22353 0 2.55121 0 2.95595C0 3.36088 0.327683 3.68837 0.732422 3.68837H4.58794L7.23286 15.5902C6.45466 15.9286 5.9082 16.7032 5.9082 17.6046C5.9082 18.8161 6.89392 19.8018 8.10547 19.8018H21.3381C21.743 19.8018 22.0705 19.4744 22.0705 19.0694C22.0705 18.6647 21.743 18.337 21.3381 18.337H8.10547C7.70206 18.337 7.37305 18.0087 7.37305 17.6046C7.37305 17.2004 7.70206 16.8722 8.10547 16.8722V16.8722Z" fill="#4BA9FF"/>
<path d="M7.37305 21.9991C7.37305 23.2108 8.35876 24.1964 9.5705 24.1964C10.7821 24.1964 11.7678 23.2108 11.7678 21.9991C11.7678 20.7876 10.7821 19.8018 9.5705 19.8018C8.35876 19.8018 7.37305 20.7876 7.37305 21.9991Z" fill="#4BA9FF"/>
<path d="M17.676 21.9991C17.676 23.2108 18.6617 24.1964 19.8733 24.1964C21.085 24.1964 22.0706 23.2108 22.0706 21.9991C22.0706 20.7876 21.085 19.8018 19.8733 19.8018C18.6617 19.8018 17.676 20.7876 17.676 21.9991Z" fill="#4BA9FF"/>
</g>
<defs>
<clipPath id="clip0_9_44">
<rect width="25" height="25" fill="white" transform="translate(0 0.709854)"/>
</clipPath>
</defs>
</svg>
